Coordinates
version=1
nRows=30
nColumns=23
inDegrees=yes

Units are S.I. units (second, meters, Newtons, ...)
If the header above contains a line with 'inDegrees', this indicates whether rotational values are in degrees (yes) or radians (no).

endheader
time	pelvis_tilt	pelvis_list	pelvis_rotation	pelvis_tx	pelvis_ty	pelvis_tz	hip_flexion_r	hip_adduction_r	hip_rotation_r	knee_angle_r	knee_angle_r_beta	ankle_angle_r	subtalar_angle_r	mtp_angle_r	hip_flexion_l	hip_adduction_l	hip_rotation_l	knee_angle_l	knee_angle_l_beta	ankle_angle_l	subtalar_angle_l	mtp_angle_l
     15.00000000	     11.05329355	      5.44555153	     11.54472432	      1.91556565	      0.84203255	      0.99778949	     28.01489194	    -16.49006214	    -11.84606926	    105.71613435	      1.84509462	     -8.30439715	    -21.13656990	      0.00000000	    -12.19329343	      6.49490442	      5.53219130	     36.29288659	      0.63343037	     22.77575326	      2.09305750	      0.00000000
     15.00666667	     10.57025346	      5.00231389	     11.02080957	      1.91654225	      0.84327487	      0.99771601	     30.86255744	    -15.68375954	    -10.87573082	    103.21885284	      1.80150883	     -7.84327938	    -21.31119454	      0.00000000	    -14.96308022	      5.66720431	      4.82315593	     33.83958395	      0.59061216	     21.17519498	      2.75475277	      0.00000000
     15.01333333	     11.13753181	      4.05374559	     10.76922210	      1.91786401	      0.84627940	      0.99724577	     31.84704557	    -14.26299883	    -10.82582520	     99.86873283	      1.74303821	     -7.65711145	    -21.90068674	      0.00000000	    -18.97290059	      4.14230687	      4.46180937	     30.87772296	      0.53891793	     19.17113279	      2.92732593	      0.00000000
     15.02000000	     10.68867434	      3.25541481	     10.43507527	      1.91939113	      0.84785337	      0.99699856	     33.90856161	    -13.04382436	    -10.41516084	     96.48372235	      1.68395863	     -7.36381275	    -22.24721227	      0.00000000	    -21.72012780	      3.01499601	      3.71674754	     28.17211719	      0.49169620	     16.54820439	      3.34762917	      0.00000000
     15.02666667	      9.37986197	      2.71456962	      9.93808705	      1.92111566	      0.84808336	      0.99705997	     36.86369992	    -12.06914933	     -9.57983743	     93.09119285	      1.62474782	     -6.89091998	    -22.14660094	      0.00000000	    -23.33410433	      2.34420882	      2.54041622	     25.84342637	      0.45105288	     13.45476560	      4.16925799	      0.00000000
     15.03333333	      7.89352508	      2.26398384	      9.57626681	      1.92285644	      0.84818839	      0.99712708	     39.67004210	    -11.15661220	     -8.76230010	     89.37184328	      1.55983292	     -6.38724035	    -22.08185998	      0.00000000	    -24.54810407	      1.83097459	      1.74593107	     23.78856438	      0.41518877	     10.15169552	      4.99325534	      0.00000000
     15.04000000	      7.41869731	      0.83196557	      9.56846886	      1.92484597	      0.85011856	      0.99698394	     40.58970297	     -9.36754657	     -9.15449310	     84.66783490	      1.47773249	     -6.08404991	    -21.79542533	      0.00000000	    -26.50740365	      0.04824060	      0.85660399	     21.89138831	      0.38207680	      6.41414199	      4.73614314	      0.00000000
     15.04666667	      5.60403336	      0.27925919	      9.17740102	      1.92667597	      0.84984463	      0.99751702	     43.13631204	     -8.29788637	     -8.37320338	     80.32584945	      1.40195055	     -5.30202415	    -20.71513153	      0.00000000	    -26.60187193	     -0.55462483	     -0.34622489	     20.98645841	      0.36628280	      2.65904092	      5.23002551	      0.00000000
     15.05333333	      4.50206796	     -0.52082673	      8.94424203	      1.92859698	      0.85083009	      0.99795893	     44.33214215	     -6.98928781	     -8.00874832	     75.37868651	      1.31560627	     -4.53493602	    -19.50263875	      0.00000000	    -27.25264551	     -1.49579995	     -1.21027882	     20.21640719	      0.35284287	     -1.22830490	      5.04101514	      0.00000000
     15.06000000	      3.02032343	     -0.98674927	      8.55267191	      1.93031383	      0.85114898	      0.99880350	     45.76223988	     -5.89713725	     -7.22479189	     70.39404506	      1.22860786	     -3.50343724	    -17.64951209	      0.00000000	    -26.96057057	     -2.05111083	     -2.23467820	     20.45954879	      0.35708649	     -4.95839393	      4.70796920	      0.00000000
     15.06666667	      2.19693143	     -1.58920530	      8.37805638	      1.93213637	      0.85256100	      0.99937484	     45.94967401	     -4.82953022	     -6.87264195	     64.98903986	      1.13427272	     -2.37703796	    -15.30308311	      0.00000000	    -27.06461282	     -2.88376217	     -3.00799646	     21.07892236	      0.36789660	     -8.64340533	      3.65954927	      0.00000000
     15.07333333	      1.45204527	     -2.01766148	      8.14240794	      1.93382055	      0.85390213	      1.00005811	     45.78826467	     -3.88751882	     -6.39662209	     59.50897734	      1.03862759	     -1.23258594	    -12.60274356	      0.00000000	    -26.78827475	     -3.54592512	     -3.75611224	     22.54664023	      0.39351311	    -11.95933285	      2.17594823	      0.00000000
     15.08000000	      0.81221182	     -2.24342740	      7.87361059	      1.93533109	      0.85516222	      1.00092295	     45.27847776	     -3.08015775	     -5.76828575	     54.04386500	      0.94324338	     -0.20209573	     -9.79655971	      0.00000000	    -26.18176828	     -4.02526787	     -4.37244938	     24.83390190	      0.43343335	    -14.67550014	      0.21029468	      0.00000000
     15.08666667	      0.75856548	     -2.56547900	      7.74411357	      1.93681816	      0.85701877	      1.00148498	     43.81415800	     -2.35886241	     -5.63893783	     48.53885820	      0.84716289	      0.66846866	     -6.62792968	      0.00000000	    -25.84278904	     -4.67088443	     -4.73871987	     27.69785216	      0.48341872	    -16.94396328	     -2.38373659	      0.00000000
     15.09333333	      0.42407720	     -2.51673382	      7.29591939	      1.93797219	      0.85786822	      1.00261266	     42.67974079	     -1.69338101	     -4.85733290	     43.48915064	      0.75902887	      1.16928636	     -3.92158097	      0.00000000	    -24.81430151	     -4.81978557	     -5.15767487	     31.41145766	      0.54823336	    -18.44170560	     -5.21600741	      0.00000000
     15.10000000	      0.93809264	     -2.72109365	      7.40632712	      1.93924124	      0.85971879	      1.00271979	     40.31678038	     -1.33303350	     -5.32045269	     38.57439495	      0.67325020	      1.40541460	     -0.86000062	      0.00000000	    -24.38625359	     -5.38480683	     -4.88556606	     35.43182516	      0.61840201	    -19.60213130	     -8.49955748	      0.00000000
     15.10666667	      1.13193845	     -2.64169598	      7.16913529	      1.94006226	      0.86038939	      1.00336845	     38.49501911	     -0.97029826	     -5.24355171	     34.45697132	      0.60138760	      1.20952884	      1.41914131	      0.00000000	    -23.27534537	     -5.46333040	     -4.66031949	     40.15044854	      0.70075752	    -20.02373175	    -11.73974573	      0.00000000
     15.11333333	      1.43180810	     -2.50209253	      6.74440886	      1.94071931	      0.86063986	      1.00416070	     36.69386253	     -0.60502449	     -5.25421552	     31.14117277	      0.54351600	      0.84084190	      3.41274093	      0.00000000	    -22.11166386	     -5.36234063	     -4.54475196	     45.12089780	      0.78750823	    -20.08219569	    -14.78749882	      0.00000000
     15.12000000	      1.86851999	     -2.42590410	      6.25853528	      1.94121423	      0.86061143	      1.00495774	     34.87654049	     -0.19824609	     -5.52944959	     28.64210922	      0.49989911	      0.28286112	      4.96103122	      0.00000000	    -20.90242946	     -5.23264631	     -4.41919699	     50.28596364	      0.87765563	    -19.89521164	    -17.53503584	      0.00000000
     15.12666667	      2.42091048	     -2.36360248	      5.69923023	      1.94154416	      0.86034215	      1.00573431	     33.07183867	      0.18458865	     -6.08746755	     26.98013007	      0.47089210	     -0.31273545	      5.89495687	      0.00000000	    -19.67703582	     -5.13824971	     -4.54196185	     55.50139044	      0.96868200	    -19.72168596	    -19.79342231	      0.00000000
     15.13333333	      3.03289877	     -2.44348022	      4.98452591	      1.94169913	      0.85972576	      1.00668077	     31.36315583	      0.75148275	     -6.72554305	     26.14324521	      0.45628571	     -0.88229850	      6.27390854	      0.00000000	    -18.39531024	     -5.15570688	     -4.90759472	     60.72123764	      1.05978552	    -19.46958690	    -21.59646754	      0.00000000
     15.14000000	      3.69846920	     -2.58879106	      4.09945143	      1.94168414	      0.85878998	      1.00782345	     29.74989609	      1.41805905	     -7.32420568	     26.12876103	      0.45603291	     -1.25914334	      6.05367381	      0.00000000	    -17.09781932	     -5.27895713	     -5.59555964	     65.83112660	      1.14896991	    -19.24932032	    -22.90256118	      0.00000000
     15.14666667	      4.21079969	     -2.84042997	      3.12454408	      1.94144384	      0.85732788	      1.00909398	     28.37640395	      2.21107084	     -7.73173965	     26.73762483	      0.46665959	     -1.50583586	      5.02621103	      0.00000000	    -15.51958126	     -5.59376861	     -6.49033783	     70.87538633	      1.23700885	    -18.99721140	    -23.57779023	      0.00000000
     15.15333333	      4.66677675	     -3.05635606	      1.90049802	      1.94083592	      0.85543688	      1.01060324	     27.21012951	      3.07155041	     -7.62666836	     28.06825311	      0.48988343	     -1.24317939	      3.40159606	      0.00000000	    -13.84485911	     -5.90562850	     -7.66794155	     75.69728344	      1.32116683	    -18.80557222	    -24.01161716	      0.00000000
     15.16000000	      5.11178289	     -3.41434604	      0.67524639	      1.94007033	      0.85325419	      1.01205018	     26.06399128	      3.97916255	     -7.57923301	     29.86336264	      0.52121400	     -0.52819500	      1.91999202	      0.00000000	    -12.09129384	     -6.49695580	     -8.91223915	     80.31554511	      1.40177070	    -18.58052580	    -24.20398433	      0.00000000
     15.16666667	      5.45658833	     -3.73635012	     -0.65284898	      1.93892194	      0.85073918	      1.01349660	     25.06338871	      4.87918480	     -7.11055959	     32.08541606	      0.55999615	      0.78755625	      0.27522544	      0.00000000	    -10.15981717	     -7.10933286	    -10.20023178	     84.68045878	      1.47795282	    -18.34628459	    -24.26411400	      0.00000000
     15.17333333	      5.72714048	     -4.06572740	     -1.98028521	      1.93751637	      0.84803163	      1.01481415	     24.08943664	      5.74084094	     -6.46326121	     34.51310705	      0.60236735	      2.59636505	     -1.15854785	      0.00000000	     -8.06381396	     -7.82315669	    -11.42802361	     88.77209305	      1.54936531	    -18.06274247	    -24.22509896	      0.00000000
     15.18000000	      5.96368946	     -4.44115202	     -3.27684137	      1.93590505	      0.84532843	      1.01595498	     23.04668400	      6.58342798	     -5.69709378	     36.98435750	      0.64549881	      4.80593775	     -2.15168847	      0.00000000	     -5.85245897	     -8.66172682	    -12.52999186	     92.54555858	      1.61522471	    -17.70568544	    -24.08873408	      0.00000000
     15.18666667	      6.15441854	     -4.82381832	     -4.49100729	      1.93399907	      0.84271746	      1.01686019	     21.91845287	      7.33538075	     -4.85658206	     39.36479391	      0.68704526	      7.30632409	     -2.74657943	      0.00000000	     -3.45930169	     -9.60175680	    -13.45373052	     95.99943895	      1.67550629	    -17.30793847	    -23.91988040	      0.00000000
     15.19333333	      6.10261680	     -5.04017676	     -5.60068092	      1.93189844	      0.84001963	      1.01747159	     20.97670137	      7.78788506	     -3.98758724	     41.70508876	      0.72789111	      9.95216723	     -2.92310594	      0.00000000	     -0.60416125	    -10.37641755	    -14.07740024	     99.13724296	      1.73027130	    -16.79038242	    -23.67487973	      0.00000000
